<?xml version="1.0" encoding="utf-8"?>
<!-- Generator: Adobe Illustrator 16.0.0, SVG Export Plug-In . SVG Version: 6.00 Build 0)  -->
<!DOCTYPE svg PUBLIC "-//W3C//DTD SVG 1.1//EN" "http://www.w3.org/Graphics/SVG/1.1/DTD/svg11.dtd" [
	<!ENTITY ns_flows "http://ns.adobe.com/Flows/1.0/">
	<!ENTITY ns_extend "http://ns.adobe.com/Extensibility/1.0/">
	<!ENTITY ns_ai "http://ns.adobe.com/AdobeIllustrator/10.0/">
	<!ENTITY ns_graphs "http://ns.adobe.com/Graphs/1.0/">
]>
<svg version="1.1" id="图层_1" xmlns:x="&ns_extend;" xmlns:i="&ns_ai;" xmlns:graph="&ns_graphs;"
	 xmlns="http://www.w3.org/2000/svg" xmlns:xlink="http://www.w3.org/1999/xlink" xmlns:a="http://ns.adobe.com/AdobeSVGViewerExtensions/3.0/"
	 x="0px" y="0px" width="200px" height="200px" viewBox="0 0 200 200" style="enable-background:new 0 0 200 200;"
	 xml:space="preserve">
<style type="text/css">
<![CDATA[
	.st0{fill:#3D84BD;}
]]>
</style>
<path class="st0" d="M100,0C44.6,0,0,44.6,0,100c0,55.4,44.6,100,100,100c55.4,0,100-44.6,100-100C200,44.6,155.4,0,100,0z
	 M37.5,87.5C37.5,80.4,42.9,75,50,75s12.5,5.4,12.5,12.5S57.1,100,50,100S37.5,94.6,37.5,87.5z M145,157.1c-0.8,1.3-2.1,1.7-3.3,1.7
	c-0.8,0-1.7-0.4-2.5-0.8c-11.3-8.3-25-12.9-39.2-12.9c-14.2,0-27.9,4.6-39.2,12.9c-1.7,1.3-4.6,0.8-5.8-0.8
	c-1.3-1.7-0.8-4.6,0.8-5.8c12.9-9.6,27.9-14.6,44.2-14.6s31.3,5,44.2,14.6C146.3,152.5,146.7,155.4,145,157.1L145,157.1z M150,100
	c-7.1,0-12.5-5.4-12.5-12.5S142.9,75,150,75s12.5,5.4,12.5,12.5S157.1,100,150,100z"/>
</svg>
