<?xml version="1.0" encoding="utf-8"?>
<!-- Generator: Adobe Illustrator 16.0.0, SVG Export Plug-In . SVG Version: 6.00 Build 0)  -->
<!DOCTYPE svg PUBLIC "-//W3C//DTD SVG 1.1//EN" "http://www.w3.org/Graphics/SVG/1.1/DTD/svg11.dtd">
<svg version="1.1" id="图层_1" xmlns="http://www.w3.org/2000/svg" xmlns:xlink="http://www.w3.org/1999/xlink" x="0px" y="0px"
	 width="200px" height="200px" viewBox="0 0 200 200" enable-background="new 0 0 200 200" xml:space="preserve">
<path fill="#4A576A" d="M100,90.625c17.188,0,31.25-14.063,31.25-31.25s-14.063-31.25-31.25-31.25s-31.25,14.063-31.25,31.25
	S82.813,90.625,100,90.625z M72.813,93.75c-10-8.125-16.563-20.313-16.563-34.375c0-24.063,19.688-43.75,43.75-43.75
	s43.75,19.688,43.75,43.75c0,13.75-6.563,26.25-16.563,34.375c31.25,9.063,54.063,37.813,54.063,71.875
	c0,10.313-8.438,18.75-18.75,18.75h-125c-10.313,0-18.75-8.438-18.75-18.75C18.75,131.563,41.563,102.813,72.813,93.75z
	 M162.5,171.875c3.438,0,6.25-2.813,6.25-6.25c0-34.375-28.125-62.5-62.5-62.5h-12.5c-34.375,0-62.5,28.125-62.5,62.5
	c0,3.438,2.813,6.25,6.25,6.25H162.5z"/>
</svg>
