<?xml version="1.0" encoding="utf-8"?>
<!-- Generator: Adobe Illustrator 16.0.0, SVG Export Plug-In . SVG Version: 6.00 Build 0)  -->
<!DOCTYPE svg PUBLIC "-//W3C//DTD SVG 1.1//EN" "http://www.w3.org/Graphics/SVG/1.1/DTD/svg11.dtd">
<svg version="1.1" id="图层_1" xmlns="http://www.w3.org/2000/svg" xmlns:xlink="http://www.w3.org/1999/xlink" x="0px" y="0px"
	 width="64px" height="64px" viewBox="0 0 64 64" enable-background="new 0 0 64 64" xml:space="preserve">
<g>
	<path fill="#B4B5B5" d="M38.752,39.668l-5.467,0.186l-1.09,2.178h-5.44l0.009,0.186l-0.756,1.248l2.314,10.107l-3.27,1.588
		l-3.269-1.588l2.313-10.107l-0.755-1.248l0.009-0.186h-6.109l-0.675-2.092l-5.099-0.045c0,0-6.086,3.469-5.949,17.902h38.833
		C44.352,57.797,46.141,47.168,38.752,39.668z"/>
</g>
<path fill="#B4B5B5" d="M35.494,24.072c0.617-8.219-0.541-12.949-10.391-11.629c-3.343,0.445-6.975-0.535-9.046,0.98
	c-2.604,2.457-2.79,6.145-2.082,10.467c-0.155,0.086-0.313,0.182-0.47,0.289l-0.463,0.314l-0.008,0.557
	c-0.024,1.439,0.155,2.656,0.543,3.588c0.354,0.848,0.873,1.479,1.57,1.857c0.828,2.822,2.018,4.941,3.506,6.467
	c1.623,1.662,3.575,2.605,5.785,2.979l0.197,0.031l0.197-0.039c2.447-0.518,4.398-1.504,5.957-3.15
	c1.443-1.523,2.52-3.584,3.311-6.334c0.67-0.391,1.172-1.027,1.514-1.865c0.371-0.926,0.543-2.123,0.518-3.533l-0.008-0.557
	L35.66,24.18C35.605,24.139,35.549,24.105,35.494,24.072L35.494,24.072z M35.494,24.072"/>
<path fill="#B4B5B5" d="M15.21,26.063c0.047,0.699,0.166,1.287,0.359,1.748c0.191,0.465,0.455,0.768,0.791,0.871l0.57,0.176
	l0.155,0.576c0.733,2.704,1.789,4.672,3.11,6.027c1.233,1.262,2.717,2,4.4,2.32c1.912-0.436,3.432-1.217,4.629-2.48
	c1.27-1.34,2.217-3.253,2.926-5.891l0.146-0.551l0.539-0.189c0.329-0.111,0.586-0.422,0.776-0.889
	c0.184-0.457,0.299-1.033,0.348-1.713c-0.316,0.004-0.637,0.01-1,0.057l-0.145-0.49l-0.309,0.02l-0.178-0.938
	c-0.137-0.73-0.348-1.408-0.623-2.031c-0.822,0.348-1.746-0.293-2.58-0.773l-0.422,1.324l-0.681-0.088l0.091-0.809l-0.719,1.152
	l-0.639-0.125l0.629-1.711c-3.518,3.123-7.633,2.922-9.926,1.178c-0.073,0.178-0.141,0.359-0.204,0.543
	c-0.159,0.633-0.336,1.457-0.493,2.084l-0.043,0.23l-0.016-0.002c-0.035,0.125-0.066,0.238-0.098,0.336
	C16.319,25.834,15.734,25.984,15.21,26.063L15.21,26.063z M15.21,26.063"/>
<path fill="#B4B5B5" d="M52.52,6.203H23.848c-1.694,0-3.07,1.434-3.07,3.203v1.592l2.163-0.008c0,0,12.553-2.959,14.573,6.799
	c0,0,0.301,7.383,0.219,8.309c0,0-0.484,5.358-2.209,7.391h3.887l2.021-1.587l4.74-3.728l1.113,1.412l-4.967,3.902H52.52
	c1.693,0,3.068-1.435,3.068-3.203V9.406C55.588,7.637,54.213,6.203,52.52,6.203z M41.973,22.307
	c-1.102,0.49-0.881-0.242-0.881-0.242c5.68-3.684,5.02-7.168,5.02-7.168c-0.455-3.697-4.102-2.904-4.102-2.904
	c-0.84,0.41-0.967,1.117-0.557,1.646c0.006,0,0.01,0,0.016,0c0.094,0,0.188,0.006,0.277,0.02c0.938,0.123,1.654,0.871,1.654,1.773
	c0,0.992-0.863,1.795-1.932,1.795c-1.07,0-1.936-0.803-1.936-1.795c0-0.143,0.023-0.283,0.059-0.418
	C38.889,11.932,42.27,11.1,42.27,11.1c5.25-0.809,5.34,3.797,5.34,3.797C47.215,19.967,41.973,22.307,41.973,22.307z M49.027,15.314
	c-0.295,0-0.533-0.24-0.533-0.535c0-0.297,0.238-0.535,0.533-0.535s0.537,0.238,0.537,0.535
	C49.564,15.074,49.322,15.314,49.027,15.314z M49.027,12.061c-0.295,0-0.533-0.238-0.533-0.533c0-0.297,0.238-0.537,0.533-0.537
	s0.537,0.24,0.537,0.537C49.564,11.822,49.322,12.061,49.027,12.061z"/>
<polygon fill="#B4B5B5" points="39.334,33.547 37.959,34.629 38.031,34.133 36.254,33.869 35.494,38.848 42.318,33.488 
	39.41,33.488 "/>
</svg>
