<?xml version="1.0" encoding="utf-8"?>
<!-- Generator: Adobe Illustrator 16.0.0, SVG Export Plug-In . SVG Version: 6.00 Build 0)  -->
<!DOCTYPE svg PUBLIC "-//W3C//DTD SVG 1.1//EN" "http://www.w3.org/Graphics/SVG/1.1/DTD/svg11.dtd">
<svg version="1.1" class="s-ion-icon" xmlns="http://www.w3.org/2000/svg" xmlns:xlink="http://www.w3.org/1999/xlink" x="0px" y="0px"
	 width="1024px" height="1024px" viewBox="0 0 1024 1024" xml:space="preserve">

<g>
	<path d="M1008.8,477.5L532.4,48.8c-11.1-10-28-9.9-39.1,0.2L17,486c-15.8,14.5-10.4,41.5,9.8,48.7
		c5.9,2.1,11.9,1.7,18,1.6c22.8-0.2,45.5-0.4,68.3-0.6c43.4-0.4,86.8-0.8,130.3-1.1v387.7c0,33.2,25.4,60.3,56.8,60.3h50
		c0-98.2,0-196.4,0-294.6c-0.1-13.6,11.9-24,25-24.5c0,0,0,0,0-0.1c0.9,0,1.7,0,2.6,0c2.6,0.1,5.1,0.6,7.5,1.4c0,0,0,0,0,0
		c3.8,1.5,6.8,2.9,10,5.9c39.6,39.4,78.6,79.5,117.8,119.2l117.9-119.2c16-14.9,46.1-4.8,44.8,18.6c0,0.5,0.2,1,0.2,1.4v291.9h50
		c31.4,0,56.8-27,56.8-60.3V529.9l207-1.8C1015.7,527.9,1028.1,494.8,1008.8,477.5z"/>
	<path d="M515.5,850.4c-0.2,0.3-4.8,0.3-5,0c-5.9-0.4-11.7-2.9-16.3-7.1L402.9,751v231.7H623V751.1l-91.2,92.3
		C527.2,847.6,521.5,850,515.5,850.4z"/>
</g>
</svg>
