<?xml version="1.0" encoding="utf-8"?>
<!-- Generator: Adobe Illustrator 16.0.0, SVG Export Plug-In . SVG Version: 6.00 Build 0)  -->
<!DOCTYPE svg PUBLIC "-//W3C//DTD SVG 1.1//EN" "http://www.w3.org/Graphics/SVG/1.1/DTD/svg11.dtd">
<svg version="1.1" id="图层_1" xmlns="http://www.w3.org/2000/svg" xmlns:xlink="http://www.w3.org/1999/xlink" x="0px" y="0px"
	 width="200px" height="200px" viewBox="0 0 200 200" style="enable-background:new 0 0 200 200;" xml:space="preserve">
<style type="text/css">
<![CDATA[
	.st0{fill:#FFFFFF;}
]]>
</style>
<g>
	<path class="st0" d="M162.5,25h-25v-6.3c0-3.5-2.8-6.3-6.3-6.3s-6.3,2.8-6.3,6.3V25H68.8v-6.3c0-3.5-2.8-6.3-6.3-6.3
		s-6.3,2.8-6.3,6.3V25H37.5c-13.8,0-25,11.2-25,25v112.5c0,13.8,11.2,25,25,25h125c13.8,0,25-11.2,25-25V50
		C187.5,36.2,176.3,25,162.5,25z M175,162.5c0,6.9-5.6,12.5-12.5,12.5h-125c-6.9,0-12.5-5.6-12.5-12.5V50c0-6.9,5.6-12.5,12.5-12.5
		h18.8v6.3c0,3.5,2.8,6.3,6.3,6.3s6.3-2.8,6.3-6.3v-6.3H125v6.3c0,3.5,2.8,6.3,6.3,6.3s6.3-2.8,6.3-6.3v-6.3h25
		c6.9,0,12.5,5.6,12.5,12.5V162.5z"/>
	<path class="st0" d="M106.3,131.3H93.8c-3.5,0-6.3,2.8-6.3,6.3s2.8,6.3,6.3,6.3h12.5c3.5,0,6.3-2.8,6.3-6.3
		S109.7,131.3,106.3,131.3z"/>
	<path class="st0" d="M68.8,68.8H56.3c-3.5,0-6.3,2.8-6.3,6.3s2.8,6.3,6.3,6.3h12.5c3.5,0,6.3-2.8,6.3-6.3S72.2,68.8,68.8,68.8z"/>
	<path class="st0" d="M68.8,100H56.3c-3.5,0-6.3,2.8-6.3,6.3s2.8,6.3,6.3,6.3h12.5c3.5,0,6.3-2.8,6.3-6.3S72.2,100,68.8,100z"/>
	<path class="st0" d="M68.8,131.3H56.3c-3.5,0-6.3,2.8-6.3,6.3s2.8,6.3,6.3,6.3h12.5c3.5,0,6.3-2.8,6.3-6.3S72.2,131.3,68.8,131.3z"
		/>
	<path class="st0" d="M143.8,131.3h-12.5c-3.5,0-6.3,2.8-6.3,6.3s2.8,6.3,6.3,6.3h12.5c3.5,0,6.3-2.8,6.3-6.3
		S147.2,131.3,143.8,131.3z"/>
	<path class="st0" d="M143.8,68.8h-12.5c-3.5,0-6.3,2.8-6.3,6.3s2.8,6.3,6.3,6.3h12.5c3.5,0,6.3-2.8,6.3-6.3S147.2,68.8,143.8,68.8z
		"/>
	<path class="st0" d="M143.8,100h-12.5c-3.5,0-6.3,2.8-6.3,6.3s2.8,6.3,6.3,6.3h12.5c3.5,0,6.3-2.8,6.3-6.3S147.2,100,143.8,100z"/>
	<path class="st0" d="M106.3,100H93.8c-3.5,0-6.3,2.8-6.3,6.3s2.8,6.3,6.3,6.3h12.5c3.5,0,6.3-2.8,6.3-6.3S109.7,100,106.3,100z"/>
	<path class="st0" d="M106.3,68.8H93.8c-3.5,0-6.3,2.8-6.3,6.3s2.8,6.3,6.3,6.3h12.5c3.5,0,6.3-2.8,6.3-6.3S109.7,68.8,106.3,68.8z"
		/>
</g>
</svg>
