<?xml version="1.0" encoding="utf-8"?>
<!-- Generator: Adobe Illustrator 16.0.0, SVG Export Plug-In . SVG Version: 6.00 Build 0)  -->
<!DOCTYPE svg PUBLIC "-//W3C//DTD SVG 1.1//EN" "http://www.w3.org/Graphics/SVG/1.1/DTD/svg11.dtd">
<svg version="1.1"  class="s-ion-icon"  xmlns="http://www.w3.org/2000/svg" xmlns:xlink="http://www.w3.org/1999/xlink" x="0px" y="0px"
	 width="1024px" height="1024px" viewBox="0 0 1024 1024" xml:space="preserve">

<g>
	<path  d="M562.4,655.6l-19.9,39.8h-99.3l0.2,3.4l-13.8,22.8L471.8,906l-59.7,29l-59.7-29l42.2-184.5l-13.8-22.8l0.2-3.4
		H269.5l-12.3-38.2l-93.1-0.8c0,0-111.1,63.3-108.6,326.8h708.8c0,0,32.7-194-102.2-330.9L562.4,655.6z"/>
	<path  d="M913.5,41.3H390.1c-30.9,0-56,26.2-56,58.5v29.1l39.5-0.1c0,0,229.1-54,266,124.1c0,0,5.5,134.8,4,151.7
		c0,0-8.8,97.8-40.3,134.9h70.9c41.2-32.3,82.3-64.7,123.4-97l20.3,25.8l-90.7,71.3h186.2c30.9,0,56-26.2,56-58.5V99.8
		C969.5,67.5,944.4,41.3,913.5,41.3z M721,335.3c-20.1,8.9-16.1-4.4-16.1-4.4c103.7-67.2,91.6-130.8,91.6-130.8
		c-8.3-67.5-74.9-53-74.9-53c-15.3,7.5-17.6,20.4-10.2,30.1c14.8,0,28.2,9.9,33,23.8c2.2,6.4,2.5,13.6,0.3,20.1
		c-2.5,7.2-8,13.1-14.6,16.8c-13.2,7.3-30.5,5-42.1-4.3c-5.6-4.5-9.8-10.8-11.1-17.9c-0.7-3.8-0.6-7.8,0.2-11.6
		c0.1-0.5,0.2-1,0.3-1.5c0.1-0.5-0.1-1.1-0.2-1.6c-0.2-1.1-0.4-2.3-0.6-3.4c-0.3-2.1-0.6-4.2-0.7-6.3c-0.9-13.7,3.4-27,12.4-37.4
		c6.9-8,16-14.1,25.6-18.5c4-1.8,8.2-3.5,12.5-4.6c95.8-14.8,97.5,69.3,97.5,69.3C816.7,292.6,721,335.3,721,335.3z M849.7,207.7
		c-12.5,0-12.6-19.5,0-19.5C862.4,188.1,862.4,207.7,849.7,207.7z M849.7,148.3c-12.6,0-12.5-19.5,0-19.5
		C862.4,128.7,862.4,148.3,849.7,148.3z"/>
	<polygon  points="672.8,540.5 647.7,560.3 649,551.2 616.6,546.4 602.7,637.3 727.3,539.4 674.2,539.4 	"/>
	<path  d="M237.4,481.1c11.4,44.4,33.7,85.2,64.8,118.8c28.8,29.3,66.2,48.5,106.8,54.8l3.6,0.5l3.9-0.7
		c41.8-7.3,80.2-27.6,109.9-57.9c29.6-33.2,50.6-73.2,61.2-116.5c15.5-9.5,25.4-25.2,30.9-42.2c5.6-17.2,7.2-35.6,6.6-53.6
		c-0.2-4.5-0.3-9-0.4-13.6c-2.5-1.7-4.9-3.5-7.4-5.2c-1.2-0.8-2.4-1.5-3.7-2.2c-0.4-0.2-0.6-0.2-0.7-0.7c0-0.4-0.1-0.8-0.1-1.1
		c-0.1-0.9-0.2-1.8-0.3-2.7c-0.7-6.4-1.4-12.8-2-19.1c-1.3-12.8-2.6-25.6-4.1-38.4c-2.9-24.5-6.5-49.3-13.4-73.1
		c-5.5-19.2-13.8-38.2-27.6-53c-14.6-15.6-34.6-24.3-55.3-28.2c-21.5-3.9-43.6-3.1-65.2-0.8c-12,1.3-24,2.9-36,3.8
		c-13,0.9-26,1.3-39,1.5c-12.8,0.1-25.6-0.1-38.3-0.2c-10.5-0.1-21.1-0.1-31.6,0.9c-10.5,1-21,3-30.7,6.9c-4.8,2-9.5,4.4-13.8,7.4
		c-1.9,1.4-3.6,3.2-5.3,4.9c-1.6,1.7-3.2,3.4-4.7,5.1c-11.9,13.5-20.8,29.5-26.6,46.6c-6.1,18-8.7,36.9-9.4,55.8
		c-0.8,21.2,0.9,42.5,3.8,63.6c0.8,5.8,1.7,11.5,2.6,17.3c-3.6,1.9-7.1,4.2-10.5,6.4c-1.7,1.1-3.3,2.2-5,3.3c-0.2,0.2-1.9,1-1.9,1.3
		c0,0.2,0,0.4,0,0.5c0,3.2,0,6.5,0,9.7c-1,17.8,0.4,36,5.3,53.1c4.9,16.9,13.9,33.1,28.5,43.6c0.9,0.6,1.8,1.2,2.7,1.8
		c0.5,0.3,0.9,0.6,1.4,0.9c0.2,0.1,0.5,0.3,0.7,0.4c0.5,0.3,0.5,0.4,0.6,0.9c0.6,2.2,1.1,4.4,1.6,6.6c0.6,2.7,1.2,5.4,1.3,8.2
		c0,0.6,0.3,2.4-0.5,2.7c-0.6,0.2-1.4-1-1.7-1.4c-1.9-2.7-3.1-6-4-9.1c-0.5-1.6-0.9-3.2-1-4.8c-0.1-1-0.1-2.3,0.6-3.1
		C234.9,479.7,236.5,480.5,237.4,481.1C248.9,525.4,224,473.3,237.4,481.1z M264.4,398.7c0.6-1.9,1.1-3.9,2-6.1h0.3
		c5.5-24.5,3.9-49.8,6-74.6c0.5-6.1,1.2-12.1,2.3-18.1c1.1-5.9,2.3-11.7,5.4-16.9c14.2,19.3,121.3,21.4,183.3-21.7l-11.8,31.5
		l11.9,2.3l13-21.1l-1.7,14.8l12.7,1.7l7.8-24.4c12.9,11.5,30.3,16.8,47.6,14.2c4.2,9.6,5.6,20.4,6.3,30.8c0.8,10.6,0.9,21.3,1.8,32
		c1,11.1,2.2,22.2,3.9,33.2c0.4,2.7,0.8,5.4,1.3,8.1c0.1,0.7,1.2,7.7,1.4,7.7c2-0.1,3.9-0.3,5.9-0.4l2.5,9c6.2-0.7,12.4-1,18.6-1
		c-0.6,10.7-2.8,21.3-6.3,31.4c-2.2,7.3-7.5,13.2-14.4,16.4l-10.1,3.4l-2.5,10.1c-8.9,40-27.5,77.3-54.2,108.3
		c-23.2,23.6-52.9,39.5-85.4,45.5c-30.9-5.3-59.3-20.2-81.2-42.6c-28.3-31.5-48.2-69.6-57.6-110.8l-2.8-10.5l-10.5-3.3
		c-7.1-2.9-12.5-8.8-14.7-16c-3.8-10.2-6.1-21.1-6.7-32.1C246.9,396.6,255.9,396.4,264.4,398.7c0.3-1.1-2.3-1.5-2.9-1.5
		c-0.2,0-1,0-0.6,0.3C261.8,398.1,263.3,398.4,264.4,398.7C265,396.8,255.8,396.4,264.4,398.7z"/>
</g>
</svg>
