<?xml version="1.0" encoding="utf-8"?>
<!-- Generator: Adobe Illustrator 16.0.0, SVG Export Plug-In . SVG Version: 6.00 Build 0)  -->
<!DOCTYPE svg PUBLIC "-//W3C//DTD SVG 1.1//EN" "http://www.w3.org/Graphics/SVG/1.1/DTD/svg11.dtd">
<svg version="1.1" id="图层_1" xmlns="http://www.w3.org/2000/svg" xmlns:xlink="http://www.w3.org/1999/xlink" x="0px" y="0px"
	 width="64px" height="64px" viewBox="0 0 64 64" enable-background="new 0 0 64 64" xml:space="preserve">
<polygon fill="none" points="7.054,6.262 57.325,6.262 61.813,57.739 7.054,57.739 "/>
<path fill="#A4A4A4" d="M27.743,40.854l0.059,1.279l-0.754,1.248l2.313,10.1l-3.269,1.59l-3.267-1.59l2.313-10.1l-0.754-1.248
	l0.058-1.279C25.882,40.775,26.304,40.775,27.743,40.854L27.743,40.854z M27.743,40.854"/>
<path fill="#A4A4A4" d="M25.456,6.16h27.519c1,0,1.91,0.409,2.57,1.068c0.658,0.656,1.066,1.566,1.066,2.568v19.996
	c0,0.997-0.408,1.906-1.066,2.565l-0.004,0.001v0.004c-0.662,0.657-1.57,1.067-2.566,1.067H43.32l-5.006,3.934l-1.789,1.402
	l0.346-2.24l0.418-2.738l1.775,0.268l-0.076,0.492l8.211-6.452l1.115,1.412l-2.701,2.123h7.359c0.508,0,0.967-0.205,1.299-0.539
	l0.002-0.001c0.33-0.331,0.539-0.792,0.539-1.298V9.796c0-0.504-0.209-0.965-0.541-1.299c-0.336-0.331-0.793-0.539-1.299-0.539
	H25.456c-0.506,0-0.967,0.205-1.299,0.536c-0.333,0.337-0.538,0.794-0.538,1.302v1.307h-1.8V9.796c0-1,0.409-1.906,1.065-2.567
	l0.006-0.001C23.55,6.569,24.456,6.16,25.456,6.16L25.456,6.16z M25.456,6.16"/>
<g>
	<defs>
		<polygon id="SVGID_3_" points="6.216,5.722 56.635,5.722 61.135,57.74 6.216,57.74 		"/>
	</defs>
	<clipPath id="SVGID_2_">
		<use xlink:href="#SVGID_3_"  overflow="visible"/>
	</clipPath>
	<path clip-path="url(#SVGID_2_)" fill="#A4A4A4" d="M36.527,23.996c0.617-8.213-0.541-12.941-10.386-11.623
		c-3.34,0.445-6.969-0.533-9.04,0.98c-2.603,2.455-2.788,6.141-2.081,10.463c-0.156,0.085-0.314,0.18-0.469,0.287l-0.465,0.315
		l-0.006,0.556c-0.025,1.439,0.154,2.656,0.541,3.586c0.354,0.848,0.875,1.479,1.57,1.857c0.828,2.821,2.018,4.94,3.505,6.463
		c1.622,1.662,3.573,2.605,5.78,2.979l0.198,0.031l0.198-0.039c2.445-0.518,4.396-1.504,5.953-3.15
		c1.442-1.521,2.517-3.582,3.308-6.332c0.67-0.39,1.174-1.025,1.514-1.864c0.371-0.926,0.543-2.121,0.518-3.531l-0.008-0.556
		l-0.463-0.315C36.639,24.064,36.584,24.031,36.527,23.996L36.527,23.996z M36.527,23.996"/>
	<path clip-path="url(#SVGID_2_)" fill="#A4A4A4" d="M12.599,39.852l-0.436-0.004l-0.336,0.291c-2.358,2.057-3.74,5.057-4.543,8.115
		c-0.775,2.967-1.009,5.996-1.054,8.23L6.206,57.67h38.862l0.111-1.041c0.291-2.691-0.168-6.098-1.17-9.219
		c-0.955-2.982-2.424-5.752-4.225-7.455l-0.354-0.334l-0.477,0.016l-5.627,0.193v2.316l5.201-0.176
		c1.354,1.445,2.49,3.693,3.275,6.148c0.779,2.43,1.199,5.031,1.141,7.227H8.587c0.094-1.922,0.345-4.242,0.941-6.51
		c0.658-2.52,1.742-4.965,3.51-6.666l4.715,0.043v-2.316L12.599,39.852z M12.599,39.852"/>
</g>
<path fill="#A4A4A4" d="M16.255,25.986c0.047,0.699,0.166,1.287,0.359,1.746c0.192,0.467,0.455,0.769,0.791,0.871l0.569,0.176
	l0.155,0.576c0.732,2.702,1.788,4.668,3.109,6.026c1.232,1.26,2.715,1.998,4.397,2.318c1.911-0.436,3.431-1.217,4.628-2.479
	c1.269-1.34,2.216-3.254,2.923-5.889l0.146-0.551l0.539-0.188c0.328-0.112,0.586-0.421,0.775-0.889
	c0.182-0.456,0.299-1.032,0.346-1.712c-0.314,0.004-0.635,0.011-1,0.055l-0.143-0.487l-0.309,0.018l-0.178-0.936
	c-0.137-0.729-0.35-1.408-0.622-2.03c-0.822,0.348-1.746-0.293-2.578-0.771l-0.422,1.322l-0.682-0.088l0.092-0.81l-0.719,1.153
	l-0.637-0.127l0.626-1.709c-3.516,3.121-7.628,2.92-9.919,1.179c-0.073,0.175-0.143,0.356-0.205,0.542
	c-0.158,0.633-0.336,1.456-0.492,2.084l-0.044,0.229l-0.016-0.002c-0.034,0.126-0.065,0.236-0.097,0.336
	C17.362,25.757,16.777,25.907,16.255,25.986L16.255,25.986z M16.255,25.986"/>
<path fill="#A5A4A3" d="M47,9.129c-0.311-0.002-0.564,0.455-0.568,1.018l-0.049,7.52c-0.656-0.237-1.529-0.248-2.428,0.038
	c-1.613,0.516-2.668,1.771-2.355,2.803c0.314,1.031,1.875,1.452,3.49,0.938c0.963-0.31,1.721-0.885,2.113-1.516
	c0.172-0.175,0.293-0.492,0.295-0.875l0.055-8.439c0.273,0.172,0.539,0.202,0.539,0.202c3.902,0.888,4.119,4.106,4.119,4.106
	C52.197,10.028,47,9.129,47,9.129z"/>
</svg>
