<?xml version="1.0" encoding="utf-8"?>
<!-- Generator: Adobe Illustrator 16.0.0, SVG Export Plug-In . SVG Version: 6.00 Build 0)  -->
<!DOCTYPE svg PUBLIC "-//W3C//DTD SVG 1.1//EN" "http://www.w3.org/Graphics/SVG/1.1/DTD/svg11.dtd">
<svg version="1.1" id="图层_1" xmlns="http://www.w3.org/2000/svg" xmlns:xlink="http://www.w3.org/1999/xlink" x="0px" y="0px"
	 width="64px" height="64px" viewBox="0 0 64 64" enable-background="new 0 0 64 64" xml:space="preserve">
<polygon fill="none" points="7.054,6.262 57.325,6.262 61.813,57.739 7.054,57.739 "/>
<path fill="#3D84BE" stroke="#3D84BE" stroke-width="3.0887" stroke-linecap="round" stroke-linejoin="round" stroke-miterlimit="10" d="
	M38.62,19.528c0,6.498-5.267,11.765-11.764,11.765c-6.496,0-11.762-5.267-11.762-11.765c0-6.494,5.266-11.762,11.762-11.762
	C33.354,7.766,38.62,13.034,38.62,19.528z"/>
<path fill="#3D84BE" stroke="#3D84BE" stroke-width="3.0887" stroke-linecap="round" stroke-linejoin="round" stroke-miterlimit="10" d="
	M47.264,53.967v-3.01c-1.015-10.383-9.76-18.49-20.407-18.49c-10.646,0-19.393,8.107-20.407,18.49v3.01
	c0,1.252,1.015,2.268,2.268,2.268h36.28C46.249,56.234,47.264,55.219,47.264,53.967z"/>
<path fill="#3D84BE" d="M59.088,23.936c0,0.855-0.716,1.546-1.593,1.546H45.031c-0.878,0-1.593-0.69-1.593-1.546l0,0
	c0-0.854,0.715-1.545,1.593-1.545h12.464C58.372,22.391,59.088,23.083,59.088,23.936L59.088,23.936z"/>
<path fill="#3D84BE" d="M59.726,29.95c0,0.854-0.712,1.547-1.594,1.547h-17.1c-0.878,0-1.592-0.693-1.592-1.547l0,0
	c0-0.852,0.714-1.545,1.592-1.545h17.1C59.014,28.405,59.726,29.098,59.726,29.95L59.726,29.95z"/>
<path fill="#3D84BE" d="M59.088,35.963c0,0.854-0.716,1.547-1.593,1.547H45.031c-0.878,0-1.593-0.693-1.593-1.547l0,0
	c0-0.854,0.715-1.545,1.593-1.545h12.464C58.372,34.418,59.088,35.109,59.088,35.963L59.088,35.963z"/>
</svg>
