<?xml version="1.0" encoding="utf-8"?>
<!-- Generator: Adobe Illustrator 16.0.0, SVG Export Plug-In . SVG Version: 6.00 Build 0)  -->
<!DOCTYPE svg PUBLIC "-//W3C//DTD SVG 1.1//EN" "http://www.w3.org/Graphics/SVG/1.1/DTD/svg11.dtd">
<svg version="1.1" id="图层_1" xmlns="http://www.w3.org/2000/svg" xmlns:xlink="http://www.w3.org/1999/xlink" x="0px" y="0px"
	 width="200px" height="200px" viewBox="0 0 200 200" style="enable-background:new 0 0 200 200;" xml:space="preserve">
<style type="text/css">
<![CDATA[
	.st0{fill:#B3B4B4;}
	.st1{fill:#B3B4B4;stroke:#B3B4B4;stroke-width:10.3914;stroke-linecap:round;stroke-linejoin:round;stroke-miterlimit:10;}
]]>
</style>
<polygon class="st1" points="14.7,99.3 100,21.1 185.3,97.8 "/>
<g>
	<path class="st0" d="M103.4,159.5c-0.8,0.7-1.9,1.2-2.9,1.3c0,0,0,0,0,0c-0.1,0-0.1,0-0.2,0c0,0-0.1,0-0.1,0c0,0-0.1,0-0.1,0
		c-0.1,0-0.1,0-0.1,0c0,0-0.1,0-0.1,0c-0.1,0-0.1,0-0.2,0c0,0,0,0,0,0c-1.1-0.1-2.1-0.5-2.9-1.3l-16.4-16.5v41.5h39.4v-41.4
		L103.4,159.5z"/>
	<path class="st0" d="M138.1,88.4H61.9c-5.6,0-10.2,4.8-10.2,10.8v74.4c0,5.9,4.6,10.8,10.2,10.8h9v-52.7v0c0-1.1,0.5-2.2,1.4-3.1
		c0.9-0.8,2-1.2,3.1-1.3c0,0,0,0,0,0c0.2,0,0.3,0,0.5,0c0.5,0,0.9,0.1,1.3,0.2c0,0,0,0,0,0c0.1,0,0.1,0,0.2,0.1c0,0,0,0,0,0
		c0.1,0,0.1,0,0.2,0.1c0,0,0,0,0.1,0c0,0,0.1,0,0.1,0.1c0,0,0.1,0,0.1,0c0,0,0.1,0,0.1,0c0,0,0.1,0,0.1,0.1c0,0,0,0,0,0
		c0.3,0.2,0.6,0.4,0.9,0.6l0.1,0.1c0,0,0,0,0,0l20.9,21.2l21.1-21.3c1.9-1.7,4.8-1.7,6.7,0c1,0.9,1.4,2.1,1.3,3.3
		c0,0.1,0.1,0.2,0.1,0.3v52.2h9c5.6,0,10.2-4.8,10.2-10.8V99.2C148.3,93.3,143.7,88.4,138.1,88.4z"/>
</g>
</svg>
