<?xml version="1.0" encoding="utf-8"?>
<!-- Generator: Adobe Illustrator 16.0.0, SVG Export Plug-In . SVG Version: 6.00 Build 0)  -->
<!DOCTYPE svg PUBLIC "-//W3C//DTD SVG 1.1//EN" "http://www.w3.org/Graphics/SVG/1.1/DTD/svg11.dtd">
<svg version="1.1" id="图层_1" xmlns="http://www.w3.org/2000/svg" xmlns:xlink="http://www.w3.org/1999/xlink" x="0px" y="0px"
	 width="200px" height="200px" viewBox="0 0 200 200" enable-background="new 0 0 200 200" xml:space="preserve">
<polygon fill="#B3B4B4" stroke="#B3B4B4" stroke-width="10.3914" stroke-linecap="round" stroke-linejoin="round" stroke-miterlimit="10" points="
	14.73,99.337 99.986,21.12 185.247,97.833 "/>
<g>
	<path fill="#B3B4B4" d="M103.352,159.458c-0.82,0.749-1.854,1.185-2.917,1.254c-0.008,0.02-0.014,0.02-0.02,0.02
		c-0.063,0-0.135,0.007-0.197,0.007c-0.033,0-0.059,0-0.084,0c-0.046,0-0.09,0-0.142,0s-0.096,0-0.141,0c-0.025,0-0.057,0-0.083,0
		c-0.071,0-0.134-0.007-0.205-0.007c-0.006,0-0.006,0-0.02-0.02c-1.062-0.069-2.091-0.505-2.91-1.254L80.278,142.91v41.465h39.397
		v-41.443L103.352,159.458z"/>
	<path fill="#B3B4B4" d="M138.103,88.44H61.882c-5.611,0-10.161,4.837-10.161,10.793v74.359c0,5.945,4.55,10.782,10.161,10.782
		h8.953v-52.712v-0.013c-0.006-1.126,0.454-2.239,1.376-3.11c0.856-0.801,1.97-1.235,3.095-1.279c0.007,0,0.007,0,0.007-0.007
		c0.154,0,0.313,0,0.467,0c0.467,0.02,0.915,0.109,1.338,0.243c0.007,0,0.007,0,0.007,0c0.063,0.031,0.127,0.042,0.191,0.077
		c0.013,0.006,0.019,0.012,0.032,0.012c0.051,0.019,0.103,0.04,0.159,0.059c0.013,0.012,0.045,0.019,0.058,0.024
		c0.045,0.021,0.084,0.035,0.122,0.06c0.026,0.011,0.064,0.031,0.096,0.044c0.032,0.018,0.058,0.031,0.083,0.044
		c0.045,0.02,0.091,0.039,0.135,0.071c0.013,0.006,0.019,0.014,0.031,0.026c0.313,0.172,0.601,0.388,0.87,0.639l0.128,0.122
		c0.014,0.013,0.026,0.024,0.032,0.03l20.93,21.175l21.083-21.327c1.856-1.722,4.846-1.728,6.688-0.013
		c0.992,0.915,1.406,2.14,1.338,3.338c0.005,0.099,0.05,0.174,0.05,0.264v52.233h8.951c5.605,0,10.155-4.837,10.155-10.782V99.234
		C148.258,93.277,143.708,88.44,138.103,88.44z"/>
</g>
</svg>
