<?xml version="1.0" encoding="utf-8"?>
<!-- Generator: Adobe Illustrator 16.0.0, SVG Export Plug-In . SVG Version: 6.00 Build 0)  -->
<!DOCTYPE svg PUBLIC "-//W3C//DTD SVG 1.1//EN" "http://www.w3.org/Graphics/SVG/1.1/DTD/svg11.dtd">
<svg version="1.1" id="图层_1" xmlns="http://www.w3.org/2000/svg" xmlns:xlink="http://www.w3.org/1999/xlink" x="0px" y="0px"
	 width="200px" height="200px" viewBox="0 0 200 200" enable-background="new 0 0 200 200" xml:space="preserve">
<g>
	<path fill="#B3B4B4" d="M-292.125,125.577l-3.551,7.092h-17.718l0.029,0.604l-2.462,4.064l7.538,32.918l-10.648,5.171
		l-10.644-5.171l7.534-32.918l-2.458-4.064l0.028-0.604h-19.896l-2.198-6.812l-16.604-0.147c0,0-19.82,11.297-19.375,58.304h126.468
		c0,0,5.826-34.616-18.237-59.042L-292.125,125.577z"/>
	<path fill="#B3B4B4" d="M-351.193,95.102c2.697,9.192,6.571,16.092,11.418,21.061c5.286,5.413,11.643,8.485,18.841,9.699
		l0.642,0.104l0.643-0.129c7.97-1.685,14.324-4.897,19.4-10.259c4.701-4.963,8.207-11.672,10.783-20.628
		c2.182-1.272,3.816-3.346,4.93-6.075c1.209-3.015,1.769-6.915,1.686-11.507l-0.025-1.813l-1.514-1.024
		c-0.178-0.133-0.363-0.242-0.541-0.35c2.011-26.766-1.762-42.172-33.841-37.872c-10.886,1.45-22.714-1.743-29.46,3.193
		c-8.482,8.001-9.086,20.011-6.781,34.087c-0.506,0.28-1.021,0.591-1.529,0.941l-1.508,1.024l-0.025,1.813
		c-0.08,4.688,0.506,8.65,1.769,11.685C-355.155,91.813-353.463,93.868-351.193,95.102z"/>
	<path fill="#B3B4B4" d="M-229.484,15.986h-93.375c-5.518,0-9.999,4.669-9.999,10.432v5.184l7.044-0.025
		c0,0,40.882-9.636,47.46,22.142c0,0,0.979,24.044,0.712,27.059c0,0-1.577,17.451-7.194,24.07h12.658l6.583-5.169l15.438-12.14
		l3.625,4.599l-16.176,12.709h33.223c5.516,0,9.993-4.673,9.993-10.433V26.418C-219.491,20.655-223.968,15.986-229.484,15.986z
		 M-263.832,68.432c-3.588,1.596-2.869-0.789-2.869-0.789c18.498-11.996,16.348-23.344,16.348-23.344
		c-1.482-12.042-13.358-9.458-13.358-9.458c-2.735,1.335-3.147,3.638-1.813,5.362c0.019,0,0.032,0,0.052,0
		c0.305,0,0.609,0.019,0.902,0.063c3.053,0.401,5.388,2.837,5.388,5.776c0,3.231-2.812,5.846-6.29,5.846
		c-3.486,0-6.305-2.614-6.305-5.846c0-0.464,0.076-0.922,0.191-1.361c-2.291-10.038,8.721-12.748,8.721-12.748
		c17.098-2.633,17.391,12.366,17.391,12.366C-246.759,60.812-263.832,68.432-263.832,68.432z M-240.857,45.66
		c-0.961,0-1.736-0.783-1.736-1.743c0-0.967,0.775-1.743,1.736-1.743s1.75,0.776,1.75,1.743
		C-239.107,44.877-239.896,45.66-240.857,45.66z M-240.857,35.063c-0.961,0-1.736-0.776-1.736-1.737
		c0-0.967,0.775-1.749,1.736-1.749s1.75,0.782,1.75,1.749C-239.107,34.287-239.896,35.063-240.857,35.063z"/>
	<polygon fill="#B3B4B4" points="-272.425,105.038 -276.904,108.562 -276.667,106.945 -282.457,106.087 -284.931,122.301 
		-262.707,104.848 -272.177,104.848 	"/>
</g>
<polygon fill="#3D84BD" stroke="#3D84BD" stroke-width="10.3914" stroke-linecap="round" stroke-linejoin="round" stroke-miterlimit="10" points="
	15.229,99.337 100.485,21.12 185.747,97.833 "/>
<g>
	<path fill="#3D84BD" d="M103.851,159.458c-0.82,0.749-1.854,1.185-2.916,1.254c-0.008,0.02-0.014,0.02-0.02,0.02
		c-0.064,0-0.135,0.007-0.197,0.007c-0.033,0-0.059,0-0.084,0c-0.047,0-0.091,0-0.143,0c-0.051,0-0.096,0-0.141,0
		c-0.025,0-0.057,0-0.082,0c-0.07,0-0.135-0.007-0.205-0.007c-0.006,0-0.006,0-0.02-0.02c-1.063-0.069-2.092-0.505-2.91-1.254
		L80.777,142.91v41.465h39.397v-41.443L103.851,159.458z"/>
	<path fill="#3D84BD" d="M138.603,88.44H62.382c-5.611,0-10.162,4.837-10.162,10.793v74.359c0,5.945,4.551,10.782,10.162,10.782
		h8.952v-52.712v-0.013c-0.006-1.126,0.454-2.239,1.376-3.11c0.856-0.801,1.971-1.235,3.096-1.279c0.006,0,0.006,0,0.006-0.007
		c0.154,0,0.314,0,0.468,0c0.468,0.02,0.915,0.109,1.338,0.243c0.007,0,0.007,0,0.007,0c0.063,0.031,0.127,0.042,0.191,0.077
		c0.014,0.006,0.02,0.012,0.032,0.012c0.052,0.019,0.103,0.04,0.159,0.059c0.014,0.012,0.045,0.019,0.058,0.024
		c0.045,0.021,0.084,0.035,0.122,0.06c0.026,0.011,0.064,0.031,0.096,0.044c0.032,0.018,0.059,0.031,0.083,0.044
		c0.045,0.02,0.091,0.039,0.136,0.071c0.012,0.006,0.018,0.014,0.031,0.026c0.313,0.172,0.601,0.388,0.869,0.639l0.129,0.122
		c0.014,0.013,0.025,0.024,0.031,0.03l20.93,21.175l21.084-21.327c1.855-1.722,4.846-1.728,6.688-0.013
		c0.992,0.915,1.406,2.14,1.338,3.338c0.006,0.099,0.051,0.174,0.051,0.264v52.233h8.951c5.605,0,10.154-4.837,10.154-10.782V99.234
		C148.757,93.277,144.208,88.44,138.603,88.44z"/>
</g>
</svg>
