<?xml version="1.0" encoding="utf-8"?>
<!-- Generator: Adobe Illustrator 16.0.0, SVG Export Plug-In . SVG Version: 6.00 Build 0)  -->
<!DOCTYPE svg PUBLIC "-//W3C//DTD SVG 1.1//EN" "http://www.w3.org/Graphics/SVG/1.1/DTD/svg11.dtd">
<svg version="1.1" id="图层_1" xmlns="http://www.w3.org/2000/svg" xmlns:xlink="http://www.w3.org/1999/xlink" x="0px" y="0px"
	 width="200px" height="200px" viewBox="0 0 200 200" enable-background="new 0 0 200 200" xml:space="preserve">
<g>
	<path fill="#B3B4B4" d="M108.9,125.577l-3.551,7.092H87.631l0.029,0.604l-2.462,4.064l7.538,32.918l-10.648,5.171l-10.644-5.171
		l7.534-32.918l-2.458-4.064l0.028-0.604H56.651l-2.198-6.812l-16.604-0.147c0,0-19.82,11.297-19.375,58.304h126.468
		c0,0,5.826-34.616-18.237-59.042L108.9,125.577z"/>
	<path fill="#B3B4B4" d="M49.832,95.102c2.697,9.192,6.571,16.092,11.418,21.061c5.286,5.413,11.643,8.485,18.841,9.699l0.642,0.104
		l0.643-0.129c7.97-1.685,14.324-4.897,19.4-10.259c4.701-4.963,8.207-11.672,10.783-20.628c2.182-1.272,3.816-3.346,4.93-6.075
		c1.209-3.015,1.769-6.915,1.686-11.507l-0.025-1.813l-1.514-1.024c-0.178-0.133-0.363-0.242-0.541-0.35
		c2.011-26.766-1.762-42.172-33.841-37.872c-10.886,1.45-22.714-1.743-29.46,3.193c-8.482,8.001-9.086,20.011-6.781,34.087
		c-0.506,0.28-1.021,0.591-1.529,0.941l-1.508,1.024l-0.025,1.813c-0.08,4.688,0.506,8.65,1.769,11.685
		C45.87,91.813,47.562,93.868,49.832,95.102z"/>
	<path fill="#B3B4B4" d="M171.541,15.986H78.167c-5.518,0-9.999,4.669-9.999,10.432v5.184l7.044-0.025
		c0,0,40.882-9.636,47.46,22.142c0,0,0.979,24.044,0.712,27.059c0,0-1.577,17.451-7.194,24.07h12.658l6.583-5.169l15.438-12.14
		l3.625,4.599l-16.176,12.709h33.223c5.516,0,9.993-4.673,9.993-10.433V26.418C181.534,20.655,177.057,15.986,171.541,15.986z
		 M137.193,68.432c-3.588,1.596-2.869-0.789-2.869-0.789c18.498-11.996,16.348-23.344,16.348-23.344
		c-1.482-12.042-13.358-9.458-13.358-9.458c-2.735,1.335-3.147,3.638-1.813,5.362c0.019,0,0.032,0,0.052,0
		c0.305,0,0.609,0.019,0.902,0.063c3.053,0.401,5.388,2.837,5.388,5.776c0,3.231-2.812,5.846-6.29,5.846
		c-3.486,0-6.305-2.614-6.305-5.846c0-0.464,0.076-0.922,0.191-1.361c-2.291-10.038,8.721-12.748,8.721-12.748
		c17.098-2.633,17.391,12.366,17.391,12.366C154.266,60.812,137.193,68.432,137.193,68.432z M160.168,45.66
		c-0.961,0-1.736-0.783-1.736-1.743c0-0.967,0.775-1.743,1.736-1.743s1.75,0.776,1.75,1.743
		C161.918,44.877,161.129,45.66,160.168,45.66z M160.168,35.063c-0.961,0-1.736-0.776-1.736-1.737c0-0.967,0.775-1.749,1.736-1.749
		s1.75,0.782,1.75,1.749C161.918,34.287,161.129,35.063,160.168,35.063z"/>
	<polygon fill="#B3B4B4" points="128.6,105.038 124.121,108.562 124.357,106.945 118.568,106.087 116.094,122.301 138.318,104.848 
		128.848,104.848 	"/>
</g>
</svg>
