<?xml version="1.0" encoding="utf-8"?>
<!-- Generator: Adobe Illustrator 16.0.0, SVG Export Plug-In . SVG Version: 6.00 Build 0)  -->
<!DOCTYPE svg PUBLIC "-//W3C//DTD SVG 1.1//EN" "http://www.w3.org/Graphics/SVG/1.1/DTD/svg11.dtd">
<svg version="1.1" id="图层_1" xmlns="http://www.w3.org/2000/svg" xmlns:xlink="http://www.w3.org/1999/xlink" x="0px" y="0px"
	 width="64px" height="64px" viewBox="0 0 64 64" enable-background="new 0 0 64 64" xml:space="preserve">
<path fill="#A5A4A3" d="M30.559,7.048c-0.437,0.554-0.245,1.435,0.431,1.968l24.97,22.135c0.677,0.533,1.576,0.518,2.016-0.036
	l0.346-0.439c0.437-0.554,0.245-1.437-0.429-1.97L32.922,6.571c-0.677-0.534-1.578-0.517-2.017,0.037L30.559,7.048z"/>
<path fill="#A5A4A3" d="M33.441,7.048c0.437,0.554,0.245,1.435-0.431,1.968L8.04,31.151c-0.677,0.533-1.576,0.518-2.016-0.036
	l-0.345-0.439c-0.437-0.554-0.245-1.437,0.429-1.97l24.97-22.134c0.677-0.534,1.578-0.517,2.016,0.037L33.441,7.048z"/>
<path fill="none" stroke="#A5A4A3" stroke-width="3.1165" stroke-linecap="round" stroke-linejoin="round" stroke-miterlimit="10" d="
	M24.21,56.273h-4.066c-1.721,0-3.116-1.395-3.116-3.117V33.238"/>
<path fill="none" stroke="#A5A4A3" stroke-width="3.1165" stroke-linecap="round" stroke-linejoin="round" stroke-miterlimit="10" d="
	M46.635,33.238v19.918c0,1.723-1.396,3.117-3.117,3.117h-4.065"/>
<path fill="#A5A4A3" d="M30.802,48.561c0.251,0.232,0.568,0.363,0.894,0.391c0.003,0.002,0.004,0.002,0.006,0.002
	c0.021,0,0.041,0.002,0.063,0.002c0.008,0,0.017,0,0.026,0c0.014,0.002,0.027,0.002,0.042,0.002s0.029,0,0.042-0.002
	c0.009,0,0.017,0,0.026,0c0.02,0,0.042-0.002,0.061-0.002c0.003,0,0.004,0,0.008-0.002c0.326-0.027,0.642-0.158,0.893-0.391
	l7.487-7.57c0.566-0.529,0.567-1.385,0.002-1.91c-0.564-0.527-1.484-0.525-2.052,0.002l-6.467,6.541l-6.417-6.49
	c-0.005-0.004-0.008-0.008-0.011-0.01l-0.04-0.041c-0.082-0.076-0.172-0.141-0.266-0.195c-0.005-0.002-0.008-0.006-0.012-0.006
	c-0.012-0.008-0.026-0.016-0.04-0.021c-0.009-0.006-0.017-0.01-0.026-0.014c-0.009-0.006-0.02-0.01-0.029-0.014
	c-0.012-0.006-0.024-0.014-0.036-0.018c-0.006-0.002-0.014-0.006-0.02-0.01c-0.017-0.006-0.032-0.014-0.049-0.02
	c-0.003,0-0.006-0.002-0.009-0.002c-0.02-0.008-0.04-0.014-0.06-0.021c0,0,0,0-0.001,0c-0.129-0.043-0.266-0.068-0.409-0.074
	c-0.049-0.002-0.096-0.002-0.145,0c0,0,0,0-0.002,0c-0.345,0.016-0.686,0.146-0.949,0.393c-0.283,0.264-0.425,0.609-0.423,0.955
	c0,0,0,0.002,0,0.004v16.43c0,0.746,0.648,1.352,1.449,1.352c0.801,0,1.449-0.605,1.449-1.352v-12.98L30.802,48.561z"/>
<path fill="#A5A4A3" d="M40.775,56.367c0,0.803-0.649,1.453-1.453,1.453l0,0c-0.802,0-1.451-0.65-1.451-1.453V40.184
	c0-0.803,0.649-1.453,1.451-1.453l0,0c0.804,0,1.453,0.65,1.453,1.453V56.367z"/>
<polygon fill="none" points="7.054,6.262 57.325,6.262 61.813,57.739 7.054,57.739 "/>
</svg>
