<?xml version="1.0" encoding="utf-8"?>
<!-- Generator: Adobe Illustrator 16.0.0, SVG Export Plug-In . SVG Version: 6.00 Build 0)  -->
<!DOCTYPE svg PUBLIC "-//W3C//DTD SVG 1.1//EN" "http://www.w3.org/Graphics/SVG/1.1/DTD/svg11.dtd">
<svg version="1.1" class="s-ion-icon" xmlns="http://www.w3.org/2000/svg" xmlns:xlink="http://www.w3.org/1999/xlink" x="0px" y="0px"
	 width="1024px" height="1024px" viewBox="0 0 1024 1024" xml:space="preserve">

<g>
	<path class="st0" d="M516.9,505.2c84.2-38.4,143-122.8,143-220.9c0-133.9-109.5-242.9-244.2-242.9c-134.6,0-244.2,109-244.2,242.9
		c0,98.1,58.8,182.5,143,220.9c-161.5,41-284.5,177.7-301.4,350L13,913c0,38.4,31.4,69.6,70,69.6h665.6c38.6,0,69.9-31.2,69.9-69.6
		v-55l-0.1-2.7C801.5,682.8,678.4,546.1,516.9,505.2z"/>
	<path class="st0" d="M749.2,393h228.7c16.1,0,29.3-12.6,29.3-28.2c0-15.6-13.2-28.2-29.3-28.2H749.2c-16.1,0-29.2,12.6-29.2,28.2
		C719.9,380.3,733.1,393,749.2,393z"/>
	<path class="st0" d="M989.5,446.3H675.8c-16.2,0-29.2,12.7-29.2,28.2c0,15.6,13.1,28.2,29.2,28.2h313.7c16.2,0,29.3-12.6,29.3-28.2
		C1018.8,459,1005.7,446.3,989.5,446.3z"/>
	<path class="st0" d="M977.9,556.1H749.2c-16.1,0-29.2,12.7-29.2,28.2c0,15.6,13.1,28.2,29.2,28.2h228.7c16.1,0,29.3-12.6,29.3-28.2
		C1007.1,568.8,994,556.1,977.9,556.1z"/>
</g>
</svg>
