<?xml version="1.0" encoding="utf-8"?>
<!-- Generator: Adobe Illustrator 16.0.0, SVG Export Plug-In . SVG Version: 6.00 Build 0)  -->
<!DOCTYPE svg PUBLIC "-//W3C//DTD SVG 1.1//EN" "http://www.w3.org/Graphics/SVG/1.1/DTD/svg11.dtd">
<svg version="1.1" class="s-ion-icon"  xmlns="http://www.w3.org/2000/svg" xmlns:xlink="http://www.w3.org/1999/xlink" x="0px" y="0px"
	 width="1024px" height="1024px" viewBox="0 0 1024 1024"  xml:space="preserve">

<path  d="M831.7,924.2H320.5c-58.8-14.6-82-62.3-90.9-104.3h572.3c31.8,0,57.7-25.9,57.7-57.7V98.8
	c0-31.8-25.9-57.7-57.7-57.7H224.5c-31.8,0-57.7,25.9-57.7,57.7v657.7c-1,19.7-0.2,39.6,2.7,59.1c2.9,19.7,7.9,39,15.4,57.5
	c7.4,18.2,17.3,35.5,29.8,50.7c13.4,16.2,29.7,29.9,48.3,39.7c19.8,10.4,41.7,16.3,63.9,18c12.7,1,25.5,0.9,38.2,1
	c13.3,0.1,26.6,0.1,39.8,0c26.6-0.2,53.1-0.5,79.7-0.5c26.6,0,53.3,0,79.9,0c26.6,0,53.3,0,79.9,0s53.3,0,79.9,0
	c26.6,0,53.2,0,79.8,0c6.6,0,13.3,0,19.9,0c4.7,0,9.4-0.1,14-1.1c4.3-0.9,8.4-2.5,11.8-5.3c3.5-2.9,6.1-6.9,7.7-11.2
	c5.6-14.8-1.2-33.2-16.6-38.6C838.1,924.7,834.9,924.2,831.7,924.2z M429.4,497.1c26-8.3,51.1-8,70.1-1.1l1.4-217.1
	c0.1-16.2,7.4-29.4,16.4-29.4c0,0,150,25.9,150.5,167.3c0,0-6.3-92.9-118.9-118.5c0,0-7.7-0.9-15.6-5.9l-1.6,243.7
	c-0.1,11.1-3.5,20.2-8.5,25.3c-8.4,13.4-20.7,24.2-34.1,32.4c-14.5,8.9-30.7,15.2-47.4,18c-15.9,2.7-32.8,2.2-48-3.5
	c-7.4-2.8-14.3-6.9-20.2-12.1c-5.8-5.1-10.9-11.2-13.5-18.6c-4.7-13.4,0.9-27,9-37.8c9.6-12.5,22.6-22.5,36-30.6
	c9.5-5.7,19.6-10.8,30.3-14c-7.3,2.2-14.6,4.5-21.8,6.9c6.2-2.1,12.5-4,18.7-6c1-0.3,2-0.8,3-1c-1.6,0.3-3.1,1-4.6,1.5
	c-3.1,1-6.3,2-9.4,3c-2.6,0.8-5.3,1.5-7.7,2.5c1.1-0.5,2.4-0.8,3.5-1.1C421.1,499.7,425.3,498.4,429.4,497.1
	C455.4,488.8,382.9,512,429.4,497.1z"/>
</svg>
