<?xml version="1.0" encoding="utf-8"?>
<!-- Generator: Adobe Illustrator 16.0.0, SVG Export Plug-In . SVG Version: 6.00 Build 0)  -->
<!DOCTYPE svg PUBLIC "-//W3C//DTD SVG 1.1//EN" "http://www.w3.org/Graphics/SVG/1.1/DTD/svg11.dtd">
<svg version="1.1" id="图层_1" xmlns="http://www.w3.org/2000/svg" xmlns:xlink="http://www.w3.org/1999/xlink" x="0px" y="0px"
	 width="64px" height="64px" viewBox="0 0 64 64" enable-background="new 0 0 64 64" xml:space="preserve">
<path fill="#A5A4A3" d="M31.577,17.58c-0.495-0.003-0.896,0.723-0.902,1.615l-0.077,11.938c-1.045-0.377-2.432-0.394-3.857,0.06
	c-2.559,0.819-4.233,2.811-3.737,4.451c0.497,1.636,2.978,2.304,5.539,1.489c1.53-0.49,2.733-1.403,3.357-2.406
	c0.273-0.278,0.463-0.782,0.466-1.39l0.09-13.398c0.431,0.272,0.855,0.321,0.855,0.321c6.193,1.409,6.541,6.519,6.541,6.519
	C39.824,19.006,31.577,17.58,31.577,17.58z"/>
<path fill="none" stroke="#A5A4A3" stroke-width="3.1752" stroke-miterlimit="10" d="M48.846,45.771c0,0.878-0.712,1.588-1.59,1.588
	H15.508c-0.878,0-1.588-0.71-1.588-1.588V9.292c0-0.878,0.71-1.588,1.588-1.588h31.748c0.878,0,1.59,0.71,1.59,1.588V45.771z"/>
<path fill="none" stroke="#A5A4A3" stroke-width="3.1752" stroke-linecap="round" stroke-linejoin="round" stroke-miterlimit="10" d="
	M13.967,44.87L13.967,44.87c-0.347,3.309,0.43,10.006,6.633,11.396h28.296"/>
<polygon fill="none" points="7.054,6.262 57.325,6.262 61.813,57.739 7.054,57.739 "/>
</svg>
