<?xml version="1.0" encoding="utf-8"?>
<!-- Generator: Adobe Illustrator 16.0.0, SVG Export Plug-In . SVG Version: 6.00 Build 0)  -->
<!DOCTYPE svg PUBLIC "-//W3C//DTD SVG 1.1//EN" "http://www.w3.org/Graphics/SVG/1.1/DTD/svg11.dtd">
<svg version="1.1" id="图层_1" xmlns="http://www.w3.org/2000/svg" xmlns:xlink="http://www.w3.org/1999/xlink" x="0px" y="0px"
	 width="64px" height="64px" viewBox="0 0 64 64" enable-background="new 0 0 64 64" xml:space="preserve">
<polygon fill="none" points="7.054,6.262 57.325,6.262 61.813,57.739 7.054,57.739 "/>
<circle fill="none" stroke="#A5A4A3" stroke-width="3.0946" stroke-miterlimit="10" cx="28.197" cy="19.518" r="11.774"/>
<path fill="none" stroke="#A5A4A3" stroke-width="3.0946" stroke-miterlimit="10" d="M48.623,53.988v-3.013
	c-1.016-10.389-9.77-18.51-20.426-18.51c-10.657,0-19.411,8.121-20.427,18.51v3.013c0,1.255,1.016,2.271,2.27,2.271h36.316
	C47.607,56.259,48.623,55.243,48.623,53.988z"/>
<path fill="#A5A4A3" d="M60.461,23.929c0,0.854-0.715,1.547-1.596,1.547H46.389c-0.881,0-1.596-0.693-1.596-1.547l0,0
	c0-0.854,0.715-1.549,1.596-1.549h12.477C59.746,22.38,60.461,23.074,60.461,23.929L60.461,23.929z"/>
<path fill="#A5A4A3" d="M61.098,29.948c0,0.854-0.711,1.547-1.596,1.547H42.387c-0.879,0-1.596-0.692-1.596-1.547l0,0
	c0-0.852,0.717-1.547,1.596-1.547h17.115C60.387,28.401,61.098,29.097,61.098,29.948L61.098,29.948z"/>
<path fill="#A5A4A3" d="M60.461,35.969c0,0.854-0.715,1.546-1.596,1.546H46.389c-0.881,0-1.596-0.691-1.596-1.546l0,0
	c0-0.854,0.715-1.548,1.596-1.548h12.477C59.746,34.421,60.461,35.115,60.461,35.969L60.461,35.969z"/>
</svg>
