<?xml version="1.0" encoding="utf-8"?>
<!-- Generator: Adobe Illustrator 16.0.0, SVG Export Plug-In . SVG Version: 6.00 Build 0)  -->
<!DOCTYPE svg PUBLIC "-//W3C//DTD SVG 1.1//EN" "http://www.w3.org/Graphics/SVG/1.1/DTD/svg11.dtd">
<svg version="1.1" id="图层_1" xmlns="http://www.w3.org/2000/svg" xmlns:xlink="http://www.w3.org/1999/xlink" x="0px" y="0px"
	 width="64px" height="64px" viewBox="0 0 64 64" enable-background="new 0 0 64 64" xml:space="preserve">
<path fill="#3D84BE" stroke="#3D84BE" stroke-width="3.0887" stroke-linecap="round" stroke-linejoin="round" stroke-miterlimit="10" d="
	M49.948,45.771c0,0.877-0.71,1.586-1.588,1.586H16.61c-0.878,0-1.588-0.709-1.588-1.586V9.291c0-0.878,0.71-1.588,1.588-1.588h31.75
	c0.878,0,1.588,0.71,1.588,1.588V45.771z"/>
<path fill="none" stroke="#3D84BE" stroke-width="3.0887" stroke-linecap="round" stroke-linejoin="round" stroke-miterlimit="10" d="
	M15.07,44.87L15.07,44.87c-0.347,3.309,0.429,10.007,6.632,11.396h28.296"/>
<path fill="#FFFFFF" d="M32.681,17.579c-0.496-0.003-0.896,0.723-0.902,1.615L31.7,31.133c-1.045-0.377-2.431-0.394-3.856,0.06
	c-2.559,0.819-4.233,2.811-3.737,4.45c0.498,1.637,2.977,2.306,5.539,1.489c1.531-0.491,2.733-1.404,3.357-2.406
	c0.273-0.277,0.461-0.781,0.465-1.389l0.09-13.399c0.432,0.273,0.856,0.321,0.856,0.321c6.192,1.41,6.54,6.52,6.54,6.52
	C40.929,19.006,32.681,17.579,32.681,17.579z"/>
<polygon fill="none" points="7.054,6.262 57.325,6.262 61.813,57.739 7.054,57.739 "/>
</svg>
