<?xml version="1.0" standalone="no"?><!DOCTYPE svg PUBLIC "-//W3C//DTD SVG 1.1//EN" "http://www.w3.org/Graphics/SVG/1.1/DTD/svg11.dtd"><svg t="1554879088670" class="icon" style="" viewBox="0 0 1024 1024" version="1.1" xmlns="http://www.w3.org/2000/svg" p-id="1896" xmlns:xlink="http://www.w3.org/1999/xlink" width="200" height="200"><defs><style type="text/css"></style></defs><path d="M512 85.333333C276.48 85.333333 85.333333 276.48 85.333333 512s191.146667 426.666667 426.666667 426.666667 426.666667-191.146667 426.666667-426.666667S747.52 85.333333 512 85.333333z m0 785.066667c-197.546667 0-358.4-160.853333-358.4-358.4s160.853333-358.4 358.4-358.4 358.4 160.853333 358.4 358.4-160.853333 358.4-358.4 358.4z" fill="#4C4C4C" p-id="1897"></path><path d="M358.4 682.666667c-18.773333 0-34.133333-15.36-34.133333-34.133334V375.466667c0-18.773333 15.36-34.133333 34.133333-34.133334s34.133333 15.36 34.133333 34.133334v273.066666c0 18.773333-15.36 34.133333-34.133333 34.133334zM460.8 682.666667c-18.773333 0-34.133333-15.36-34.133333-34.133334v-102.4c0-18.773333 15.36-34.133333 34.133333-34.133333s34.133333 15.36 34.133333 34.133333v102.4c0 18.773333-15.36 34.133333-34.133333 34.133334zM563.2 682.666667c-18.773333 0-34.133333-15.36-34.133333-34.133334v-204.8c0-18.773333 15.36-34.133333 34.133333-34.133333s34.133333 15.36 34.133333 34.133333v204.8c0 18.773333-15.36 34.133333-34.133333 34.133334zM665.6 682.666667c-18.773333 0-34.133333-15.36-34.133333-34.133334v-136.533333c0-18.773333 15.36-34.133333 34.133333-34.133333s34.133333 15.36 34.133333 34.133333v136.533333c0 18.773333-15.36 34.133333-34.133333 34.133334z" fill="#4C4C4C" p-id="1898"></path></svg>