<?xml version="1.0" standalone="no"?><!DOCTYPE svg PUBLIC "-//W3C//DTD SVG 1.1//EN" "http://www.w3.org/Graphics/SVG/1.1/DTD/svg11.dtd"><svg t="1546843180014" class="icon" style="" viewBox="0 0 1024 1024" version="1.1" xmlns="http://www.w3.org/2000/svg" p-id="24116" xmlns:xlink="http://www.w3.org/1999/xlink" width="200" height="200"><defs><style type="text/css"></style></defs><path d="M416.256 547.84h-256c-39.424 0-71.68 32.256-71.68 71.68v327.68h327.68c39.424 0 71.68-32.256 71.68-71.68v-256c0-39.424-32.256-71.68-71.68-71.68z m-7.68 320h-240.64v-240.64h240.64v240.64zM416.256 99.84h-327.68v327.68c0 39.424 32.256 71.68 71.68 71.68h256c39.424 0 71.68-32.256 71.68-71.68v-256c0-39.424-32.256-71.68-71.68-71.68zM408.576 419.84h-240.64V179.2h240.64v240.64zM608.256 99.84c-39.424 0-71.68 32.256-71.68 71.68v256c0 39.424 32.256 71.68 71.68 71.68h256c39.424 0 71.68-32.256 71.68-71.68v-327.68h-327.68zM864.256 547.84h-256c-39.424 0-71.68 32.256-71.68 71.68v256c0 39.424 32.256 71.68 71.68 71.68h327.68v-327.68c0-39.424-32.256-71.68-71.68-71.68z m-7.68 320h-240.64v-240.64h240.64v240.64z" p-id="24117" fill="#2c2c2c"></path></svg>