<?xml version="1.0" standalone="no"?><!DOCTYPE svg PUBLIC "-//W3C//DTD SVG 1.1//EN" "http://www.w3.org/Graphics/SVG/1.1/DTD/svg11.dtd"><svg t="1546745140681" class="icon" style="" viewBox="0 0 1024 1024" version="1.1" xmlns="http://www.w3.org/2000/svg" p-id="29788" xmlns:xlink="http://www.w3.org/1999/xlink" width="200" height="200"><defs><style type="text/css"></style></defs><path d="M768.672228 186.28952l-93.086906 0 0 11.636247c0 38.555053-31.24912 69.815436-69.815436 69.815436L419.596073 267.741203c-38.555053 0-69.815436-31.260383-69.815436-69.815436l0-11.636247-93.086906 0c-38.555053 0-69.815436 31.260383-69.815436 69.815436l0 558.510175c0 38.566316 31.259359 69.815436 69.815436 69.815436l511.978497 0c38.566316 0 69.815436-31.24912 69.815436-69.815436L838.487664 256.104956C838.487664 217.549903 807.238544 186.28952 768.672228 186.28952zM675.585321 698.256753 349.780637 698.256753c-12.851684 0-23.272495-10.408523-23.272495-23.272495 0-12.840421 10.419786-23.272495 23.272495-23.272495l325.804684 0c12.840421 0 23.272495 10.432074 23.272495 23.272495C698.857816 687.84823 688.425742 698.256753 675.585321 698.256753zM675.585321 558.625882 349.780637 558.625882c-12.851684 0-23.272495-10.408523-23.272495-23.271471 0-12.840421 10.419786-23.261231 23.272495-23.261231l325.804684 0c12.840421 0 23.272495 10.42081 23.272495 23.261231C698.857816 548.217359 688.425742 558.625882 675.585321 558.625882zM675.585321 419.007298 349.780637 419.007298c-12.851684 0-23.272495-10.419786-23.272495-23.271471s10.419786-23.271471 23.272495-23.271471l325.804684 0c12.840421 0 23.272495 10.419786 23.272495 23.271471S688.425742 419.007298 675.585321 419.007298z" p-id="29789"></path><path d="M431.23232 232.833485l162.902342 0c19.294422 0 34.907718-15.635823 34.907718-34.907718l0-23.272495c0-19.283158-15.613296-34.907718-34.907718-34.907718L431.23232 139.745555c-19.283158 0-34.907718 15.62456-34.907718 34.907718l0 23.272495C396.324602 217.197662 411.949162 232.833485 431.23232 232.833485z" p-id="29790"></path></svg>