<?xml version="1.0" standalone="no"?><!DOCTYPE svg PUBLIC "-//W3C//DTD SVG 1.1//EN" "http://www.w3.org/Graphics/SVG/1.1/DTD/svg11.dtd"><svg t="1548561571712" class="icon" style="" viewBox="0 0 1024 1024" version="1.1" xmlns="http://www.w3.org/2000/svg" p-id="1145" data-spm-anchor-id="a313x.7781069.0.i0" xmlns:xlink="http://www.w3.org/1999/xlink" width="200" height="200"><defs><style type="text/css"></style></defs><path d="M511.3 98.3c-228 0-413.5 185.5-413.5 413.5 0 23.8 2.6 48.1 6.5 70.8 0 0.1 0.2 0.1 0.3 0.2 1.6 5.8 6.7 10.1 13 10.1 7.6 0 13.8-6.2 13.8-13.8 0-0.5-0.2-0.9-0.3-1.3l0.2-0.1c-3.7-21.4-6-43.3-6-65.8 0-213.1 172.8-385.9 385.9-385.9s385.9 172.8 385.9 385.9-172.6 385.9-385.8 385.9c-142.4 0-266.5-77.4-333.4-192.2 0-0.1-0.1-0.1-0.1-0.2l-0.6-0.9c-2.3-4.3-6.7-7.4-12-7.4-7.6 0-13.8 6.2-13.8 13.8 0 3 1.2 5.6 2.8 7.8l-0.2 0.1C225.7 842 358.8 925.2 511.3 925.2c228 0 413.5-185.5 413.5-413.5S739.3 98.3 511.3 98.3z" fill="#108ee9" p-id="1146"></path><path d="M446.9 659.6c-7 0-14.1-1.8-20.5-5.5-12.8-7.3-20.6-20.5-20.9-35.2L402 406.1c-0.2-14.9 7.3-28.5 20.1-36.2 12.8-7.7 28.3-7.9 41.3-0.7l191.3 106.4c13.2 7.4 21.2 20.8 21.3 36 0.1 15.1-7.8 28.6-21 36.1L467.3 654.2c-6.4 3.6-13.4 5.4-20.4 5.4z m-17.4-254l3.6 212.8c0.1 7.1 4.9 10.6 7 11.7 2 1.2 7.5 3.6 13.6 0l187.7-106.4c6.3-3.6 7-9.6 7-12.1 0-2.4-0.7-8.5-7.1-12L450 393.3c-6.2-3.4-11.7-1-13.8 0.2-2 1.3-6.8 4.9-6.7 12.1z" fill="#108ee9" p-id="1147"></path></svg>