<?xml version="1.0" standalone="no"?><!DOCTYPE svg PUBLIC "-//W3C//DTD SVG 1.1//EN" "http://www.w3.org/Graphics/SVG/1.1/DTD/svg11.dtd"><svg t="1554868809637" class="icon" style="" viewBox="0 0 1024 1024" version="1.1" xmlns="http://www.w3.org/2000/svg" p-id="4120" xmlns:xlink="http://www.w3.org/1999/xlink" width="200" height="200"><defs><style type="text/css"></style></defs><path d="M399.6 506.4c-0.5-6.9 1.8-11.6 8.3-14.9 25.4-12.7 50.7-25.6 76-38.5 56.1-28.6 112.3-57.2 168.2-86.2 12.3-6.4 23.5-11.6 34.9 0.9 1.9 2.1 5.6 2.5 8.3 4.1 43 25.9 87.8 25 131 3.2 49-24.6 73.7-66.7 76.3-119.6-0.6-8.9-0.6-15.8-1.5-22.6-7.7-63.1-62.7-112.1-120.3-119.2-50.9-6.2-107.1 18.6-134.5 62.3-15.9 25.4-23.7 52.8-23.7 82.8 0 3.7-2.5 9.1-5.5 10.7-16.7 9.1-33.9 17.2-50.9 25.8-27.2 13.7-54.4 27.4-81.6 41.2-42.4 21.6-84.8 43.4-127.4 64.5-3.5 1.8-10.3 0.4-13.8-2-53.8-38-116.2-39.3-168.3 0.6-44.5 34.2-61.9 80.3-51.9 137 6.3 35.8 25 63 52.3 84.2 47 36.6 108.8 38.1 158.6 5.7 6-3.8 11-4.4 17.1-1.3 21.7 11 43.5 21.7 65.2 32.7 60.7 31 121.1 62.5 182 93.2 15.6 7.9 25.3 15 26.5 36.4 2.7 45.3 28.4 79.6 65.8 104.6 17.6 11.8 37.5 15.7 58.3 18.1 51.3 5.9 93-12.7 123.7-52.3 33.3-43 38.2-90.6 17.1-141.5-23.7-57.5-89.1-90.2-146.4-81-24.6 3.9-47.9 11.8-67.2 28.8-3.9 3.5-7.7 6.9-14.4 3.3-20-10.6-40.5-20.1-60.7-30.3-62.2-31.7-124.4-63.6-186.7-95.2-17-8.7-17-8.6-15.2-27.2 0.5-2.9 0.6-5.6 0.4-8.3z m0 0" p-id="4121"></path></svg>